<svg id="chart-arrow-up-icon" xmlns="http://www.w3.org/2000/svg" width="16.849" height="16" viewBox="0 0 16.849 16">
  <path id="Path_8" data-name="Path 8" d="M9.534,12.553l1.814,1.814a.816.816,0,1,1-.841.816.871.871,0,0,1,.012-.147L8.941,13.459v1.16H7.811V13.491l-1.6,1.6c0,.029,0,.059,0,.089h0a.817.817,0,1,1-.817-.816h.04l1.814-1.814L0,12.553V1.031A.218.218,0,0,1,.221.816H7.811V0h1.13V.816h7.687a.219.219,0,0,1,.221.215v11.52H9.534ZM3.687,8.6,6.876,5.481c.79.79,1.571,1.571,2.369,2.36L11.359,5.7l-.98-.98L13.137,4.7V7.478L12.2,6.536c-.982.994-1.959,1.985-2.944,2.971L6.86,7.146,4.523,9.435,3.687,8.6ZM15.6,2.98H1.223v8.315H15.6V2.98Z"/>
</svg>
