<svg xmlns="http://www.w3.org/2000/svg" width="10.466" height="13.954" viewBox="0 0 10.466 13.954">
  <path id="Icon_awesome-file-alt" data-name="Icon awesome-file-alt" d="M6.105,3.707V0H.654A.653.653,0,0,0,0,.654V13.3a.653.653,0,0,0,.654.654H9.812a.653.653,0,0,0,.654-.654V4.361H6.759A.656.656,0,0,1,6.105,3.707Zm1.744,6.432a.328.328,0,0,1-.327.327H2.944a.328.328,0,0,1-.327-.327V9.921a.328.328,0,0,1,.327-.327H7.522a.328.328,0,0,1,.327.327Zm0-1.744a.328.328,0,0,1-.327.327H2.944a.328.328,0,0,1-.327-.327V8.176a.328.328,0,0,1,.327-.327H7.522a.328.328,0,0,1,.327.327Zm0-1.962V6.65a.328.328,0,0,1-.327.327H2.944a.328.328,0,0,1-.327-.327V6.432a.328.328,0,0,1,.327-.327H7.522A.328.328,0,0,1,7.849,6.432Zm2.616-3.11v.166H6.977V0h.166a.654.654,0,0,1,.463.191l2.668,2.671A.652.652,0,0,1,10.466,3.322Z"/>
</svg>
