<svg xmlns="http://www.w3.org/2000/svg" width="11.643" height="15.525" viewBox="0 0 11.643 15.525">
  <path id="Icon_awesome-file-invoice-dollar" data-name="Icon awesome-file-invoice-dollar" d="M11.431,3.184,8.463.212A.727.727,0,0,0,7.947,0H7.762V3.881h3.881V3.7A.725.725,0,0,0,11.431,3.184Zm-4.639.94V0H.728A.726.726,0,0,0,0,.728V14.8a.726.726,0,0,0,.728.728H10.916a.726.726,0,0,0,.728-.728V4.851H7.52A.73.73,0,0,1,6.792,4.124ZM1.941,2.183a.243.243,0,0,1,.243-.243H4.609a.243.243,0,0,1,.243.243v.485a.243.243,0,0,1-.243.243H2.183a.243.243,0,0,1-.243-.243Zm0,2.426V4.124a.243.243,0,0,1,.243-.243H4.609a.243.243,0,0,1,.243.243v.485a.243.243,0,0,1-.243.243H2.183A.243.243,0,0,1,1.941,4.609Zm4.366,8v.731a.243.243,0,0,1-.243.243H5.579a.243.243,0,0,1-.243-.243V12.6a1.736,1.736,0,0,1-.951-.344.243.243,0,0,1-.017-.368l.356-.34a.249.249,0,0,1,.307-.022.73.73,0,0,0,.389.113h.852a.381.381,0,0,0,.358-.4.4.4,0,0,0-.266-.386L5,10.448a1.372,1.372,0,0,1-.958-1.316A1.35,1.35,0,0,1,5.336,7.766V7.035a.243.243,0,0,1,.243-.243h.485a.243.243,0,0,1,.243.243v.737a1.734,1.734,0,0,1,.951.344.243.243,0,0,1,.017.368l-.356.34a.249.249,0,0,1-.307.022.727.727,0,0,0-.389-.113H5.371a.381.381,0,0,0-.358.4.4.4,0,0,0,.266.386l1.364.409A1.372,1.372,0,0,1,7.6,11.244,1.35,1.35,0,0,1,6.307,12.61Z"/>
</svg>
