<svg xmlns="http://www.w3.org/2000/svg" width="15.728" height="15.728" viewBox="0 0 15.728 15.728">
  <path id="Icon_awesome-user-circle" data-name="Icon awesome-user-circle" d="M7.364.563a7.364,7.364,0,1,0,7.364,7.364A7.363,7.363,0,0,0,7.364.563Zm0,2.851A2.613,2.613,0,1,1,4.751,6.026,2.613,2.613,0,0,1,7.364,3.413Zm0,10.215A5.69,5.69,0,0,1,3.014,11.6,3.311,3.311,0,0,1,5.939,9.827a.727.727,0,0,1,.211.033,3.932,3.932,0,0,0,1.215.2,3.917,3.917,0,0,0,1.215-.2.727.727,0,0,1,.211-.033A3.311,3.311,0,0,1,11.714,11.6,5.69,5.69,0,0,1,7.364,13.628Z" transform="translate(0.5 -0.063)" fill="none" stroke="#000" stroke-width="1"/>
</svg>
