<svg xmlns="http://www.w3.org/2000/svg" width="14.469" height="15.503" viewBox="0 0 14.469 15.503">
  <path id="Icon_metro-mail-read" data-name="Icon metro-mail-read" d="M13.8,8.129H8.633V9.163H13.8ZM10.7,6.062H8.633V7.1H10.7Zm6.2-.444V4H14.627L11.733,1.928,8.84,4H6.566V5.618L4.5,7.1V17.431H18.968V7.1L16.9,5.618Zm-9.3-.59h8.268V8.982l-4.134,3.41L7.6,8.982V5.029ZM5.532,9.163,9.6,12.257l-4.07,3.107v-6.2ZM6.566,16.4l4.1-3.331,1.066.811,1.064-.809L16.9,16.4H6.566Zm11.369-1.034-4.075-3.1,4.075-3.1v6.2Z" transform="translate(-4.499 -1.928)"/>
</svg>
