<svg xmlns="http://www.w3.org/2000/svg" width="12.252" height="18.223" viewBox="0 0 12.252 18.223">
  <g id="master" transform="translate(-1 2.689)">
    <path id="competition-icon" d="M49.179,31.155a1.118,1.118,0,0,1,1.567-.33,1.137,1.137,0,0,1,.385,1.484c-.495.825-2.886,5.168-3.354,5.5v3.244h0v5.965a1.182,1.182,0,1,1-2.364,0V42.068a.763.763,0,0,1-.495,0v4.948c.11,1.594-2.364,1.594-2.364,0V41.051h0V37.835c-.467-.3-2.914-4.7-3.381-5.525a1.146,1.146,0,1,1,1.979-1.155l2.364,4.013a16.811,16.811,0,0,1,3.326,0ZM44.973,30a2.109,2.109,0,0,1,1.594.715,2.32,2.32,0,0,1,.22,2.666,1.875,1.875,0,0,1-1.649.907,2.325,2.325,0,0,1-1.512-.55,2.057,2.057,0,0,1-.357-2.886,2.479,2.479,0,0,1,.247-.275A2.129,2.129,0,0,1,44.973,30Z" transform="translate(-38.011 -32.689)" fill-rule="evenodd"/>
  </g>
</svg>
