<svg xmlns="http://www.w3.org/2000/svg" width="12.734" height="11.754" viewBox="0 0 12.734 11.754">
  <g id="Icon_ionic-md-wallet" data-name="Icon ionic-md-wallet" transform="translate(-3.375 -4.5)">
    <path id="Path_5" data-name="Path 5" d="M8.11,12.988V7.766A1.306,1.306,0,0,1,9.417,6.459h6.03V5.807A1.3,1.3,0,0,0,14.153,4.5H4.722A1.323,1.323,0,0,0,3.375,5.786v9.183a1.323,1.323,0,0,0,1.347,1.286H14.15a1.3,1.3,0,0,0,1.295-1.307V14.3H9.414A1.306,1.306,0,0,1,8.11,12.988Z"/>
    <path id="Path_6" data-name="Path 6" d="M17.227,12.443v4.285a.491.491,0,0,0,.49.49H23.44a.491.491,0,0,0,.49-.49V12.443a.491.491,0,0,0-.49-.49H17.716A.491.491,0,0,0,17.227,12.443Zm2.36,3.119a.98.98,0,1,1,.915-.915A.98.98,0,0,1,19.587,15.562Z" transform="translate(-7.821 -4.208)"/>
  </g>
</svg>
