<svg xmlns="http://www.w3.org/2000/svg" width="15.201" height="12.444" viewBox="0 0 15.201 12.444">
  <g id="hand-money-income-note-icon" transform="translate(0 -6)">
    <path id="Path_4" data-name="Path 4" d="M3.69,10.859V6.291H5.745A7.708,7.708,0,0,1,8.358,7.467h1.6c.722.043,1.1.776.4,1.257A2.952,2.952,0,0,1,8.3,9.044a.344.344,0,1,0,0,.678c.189.015.395-.03.574-.03a2.346,2.346,0,0,0,2.2-.928l.239-.558L13.683,7.03c1.188-.391,2.033.851,1.157,1.716a31.1,31.1,0,0,1-5.286,3.111,3.579,3.579,0,0,1-3.929,0l-1.934-1ZM5.247,0l8.835,2.367L12.85,6.96,4.016,4.594,5.247,0ZM9.412,2.13A1.4,1.4,0,1,1,7.7,3.12a1.4,1.4,0,0,1,1.713-.99ZM6.536,1.095,12.41,2.669a.7.7,0,0,0,.5.86l-.486,1.816a.7.7,0,0,0-.86.5L5.686,4.268a.7.7,0,0,0-.5-.86l.486-1.816a.7.7,0,0,0,.861-.5ZM0,5.852H3.072v5.466H0V5.852Z" transform="translate(0 6)" fill-rule="evenodd"/>
  </g>
</svg>
