<svg xmlns="http://www.w3.org/2000/svg" width="16.406" height="10.892" viewBox="0 0 16.406 10.892">
  <path id="Icon_metro-profile" data-name="Icon metro-profile" d="M19.733,10.6H9.113l-2.271.038L5.671,10.6A1.192,1.192,0,0,0,4.5,11.814v8.471A1.192,1.192,0,0,0,5.671,21.5H19.733a1.192,1.192,0,0,0,1.172-1.21V11.814A1.192,1.192,0,0,0,19.733,10.6ZM9.186,13.516c.708,0,1.282.779,1.282,1.74S9.894,17,9.186,17,7.9,16.217,7.9,15.256s.574-1.74,1.282-1.74ZM6.647,19.044s.139-1.151.455-1.368a4.383,4.383,0,0,1,1.225-.362s.589.65.84.65.84-.65.84-.65a4.37,4.37,0,0,1,1.225.362c.371.255.463,1.368.463,1.368H6.647Zm11.914-.574H13.288v-.605h5.274Zm0-1.21H13.288v-.605h5.274Zm0-1.21H13.288v-.605h5.274Zm0-1.21H13.288v-.605h5.274Z" transform="translate(-4.499 -10.604)"/>
</svg>
