<svg xmlns="http://www.w3.org/2000/svg" width="17.013" height="16.548" viewBox="0 0 17.013 16.548">
  <g id="project-64" transform="translate(-84.037 -91.5)">
    <path id="Path_867" data-name="Path 867" d="M92.65,508.962a.592.592,0,0,1-.246-.054l-6.792-3.086a6.644,6.644,0,0,1-1.2-.594.6.6,0,1,1,.632-1.009,5.358,5.358,0,0,0,1,.493c.014.006.028.01.04.016l6.566,2.983,6.609-2.993c.2-.093.4-.189.592-.288l.008,0,.423-.207a.6.6,0,1,1,.522,1.07l-.421.207c-.2.1-.413.2-.622.3l-.006,0L92.9,508.91A.615.615,0,0,1,92.65,508.962Z" transform="translate(-0.09 -404.433)" fill="#2c2c2c"/>
    <path id="Path_868" data-name="Path 868" d="M92.56,108.048a.592.592,0,0,1-.246-.054l-6.81-3.086a7.478,7.478,0,0,1-1.18-.582.6.6,0,1,1,.618-1.019,6.461,6.461,0,0,0,1,.495.221.221,0,0,1,.032.014l6.58,2.983,6.607-3c.2-.1.4-.191.594-.29l.006,0,.425-.207a.6.6,0,0,1,.52,1.072l-.421.2c-.2.1-.407.2-.618.3l-.008,0L92.807,108A.615.615,0,0,1,92.56,108.048Zm.008-15.356a.656.656,0,0,1,.363.109l.054.036.058.03,6.4,3.327a.214.214,0,0,1,.089.187l0,.05v.05a.132.132,0,0,1-.058.109l-6.431,2.846-.024.012L93,99.458a1.255,1.255,0,0,1-.455.127,1.1,1.1,0,0,1-.4-.119l-.036-.018-.036-.016L85.657,96.6a.166.166,0,0,1-.073-.131v-.02l0-.02a.277.277,0,0,1,.093-.222l6.437-3.346.05-.026.048-.032a.651.651,0,0,1,.359-.107m0-1.192a1.843,1.843,0,0,0-1,.3l-6.516,3.386a1.466,1.466,0,0,0-.655,1.307,1.354,1.354,0,0,0,.737,1.174l6.457,2.856a2.261,2.261,0,0,0,.961.258v0a2.444,2.444,0,0,0,.979-.254L100,97.661a1.326,1.326,0,0,0,.723-1.194,1.4,1.4,0,0,0-.691-1.311L93.593,91.81a1.846,1.846,0,0,0-1.025-.31Z" fill="#2c2c2c"/>
  </g>
</svg>
