<svg xmlns="http://www.w3.org/2000/svg" width="11.411" height="13.048" viewBox="0 0 11.411 13.048">
  <g id="edit-document-icon_1_" data-name="edit-document-icon (1)" transform="translate(0.25 0.25)">
    <path id="Path_7" data-name="Path 7" d="M4.776,11.9a.322.322,0,1,1,0,.643H.748A.75.75,0,0,1,0,11.8V.748A.75.75,0,0,1,.748,0H9.941a.75.75,0,0,1,.748.748v5.12a.322.322,0,0,1-.643,0V.748a.1.1,0,0,0-.032-.074A.105.105,0,0,0,9.941.643H.748A.109.109,0,0,0,.674.674.111.111,0,0,0,.643.748V11.8a.1.1,0,0,0,.032.074A.106.106,0,0,0,.75,11.9H4.776Zm5.3-4.313A.247.247,0,0,0,9.9,7.519a.244.244,0,0,0-.178.08l-.4.416L10.44,9.1l.4-.42a.263.263,0,0,0-.007-.359l-.758-.725ZM7.986,11.642c-.148.047-.3.1-.442.144l-.442.148q-.522.172-.584.189t.071-.491l.277-1.067h0l2.1-2.183,1.119,1.077-2.1,2.183ZM3.225,4.195a.322.322,0,1,1,0-.643H7.467a.322.322,0,1,1,0,.643Zm0,4.563a.326.326,0,0,1,0-.651h2.09a.326.326,0,0,1,0,.651Zm0-2.283a.322.322,0,1,1,0-.643H7.467a.322.322,0,1,1,0,.643Z" transform="translate(0 0)" stroke="#000" stroke-width="0.5"/>
  </g>
</svg>
