<svg xmlns="http://www.w3.org/2000/svg" width="8" height="14.225" viewBox="0 0 8 14.225">
  <path id="Icon_awesome-dollar-sign" data-name="Icon awesome-dollar-sign" d="M5.814,6.485l-3-.878A.819.819,0,0,1,3.044,4H4.886a1.7,1.7,0,0,1,.95.292.433.433,0,0,0,.542-.056l.967-.945a.45.45,0,0,0-.05-.681,3.929,3.929,0,0,0-2.4-.834V.445A.446.446,0,0,0,4.447,0H3.558a.446.446,0,0,0-.445.445V1.778H3.044A3.044,3.044,0,0,0,.015,5.1,3.181,3.181,0,0,0,2.344,7.785l2.848.834a.819.819,0,0,1-.231,1.606H3.119a1.7,1.7,0,0,1-.95-.292.433.433,0,0,0-.542.056l-.967.945a.45.45,0,0,0,.05.681,3.929,3.929,0,0,0,2.4.834v1.334a.446.446,0,0,0,.445.445h.889a.446.446,0,0,0,.445-.445V12.442a3.138,3.138,0,0,0,2.937-2.02A3.051,3.051,0,0,0,5.814,6.485Z" transform="translate(-0.003)"/>
</svg>
