<svg xmlns="http://www.w3.org/2000/svg" width="15.001" height="14.91" viewBox="0 0 15.001 14.91">
  <path id="time-tracking-icon" d="M6.927,2.638A6.164,6.164,0,0,1,12.178,7.3l-.039-.012A4.285,4.285,0,0,0,11.1,7.125a5.168,5.168,0,1,0-3.694,6.65,4.29,4.29,0,0,0,.724.822A6.158,6.158,0,1,1,5.764,2.608V1.529H4.613a.344.344,0,0,1-.344-.343V.344A.346.346,0,0,1,4.613,0H8.079a.344.344,0,0,1,.343.344v.841a.343.343,0,0,1-.343.343H6.925V2.638Zm3.706,5.817a2.964,2.964,0,0,1,2.973,4.282l1.43,1.247-.789.9-1.381-1.221a2.964,2.964,0,1,1-2.233-5.21Zm1.755,1.161a2.285,2.285,0,1,0,.844,1.531,2.285,2.285,0,0,0-.844-1.531ZM6.683,7.831a1.044,1.044,0,1,1-1.4,1.449H3.473a.495.495,0,1,1,0-.989H5.251a1.045,1.045,0,0,1,.443-.459V5.439a.495.495,0,0,1,.989,0ZM11.719,4.5a1.488,1.488,0,0,0-.132-1.568,1.508,1.508,0,0,0-1.841-.2A9.986,9.986,0,0,1,11.719,4.5ZM.659,4.5A1.488,1.488,0,0,1,.79,2.929a1.508,1.508,0,0,1,1.841-.2A9.98,9.98,0,0,0,.659,4.5Z" transform="translate(-0.036)"/>
</svg>
